<?xml version="1.0" encoding="UTF-8"?>
<svg width="2400px" height="1350px" viewBox="0 0 2400 1350" version="1.1" xmlns="http://www.w3.org/2000/svg" xmlns:xlink="http://www.w3.org/1999/xlink">
    <!-- Generator: Sketch 60.1 (88133) - https://sketch.com -->
    <title>bg</title>
    <desc>Created with Sketch.</desc>
    <g id="Page-1" stroke="none" stroke-width="1" fill="none" fill-rule="evenodd">
        <g id="bg" fill-rule="nonzero">
            <rect id="Rectangle" fill="#1A1A1A" x="0" y="0" width="2400" height="1350"></rect>
            <path d="M1069.497,839.389 L1069.497,846.006 L1066,846.006 L1066,827.208 L1072.123,827.208 C1073.37967,827.208 1074.46733,827.355332 1075.386,827.65 C1076.30467,827.944668 1077.063,828.356331 1077.661,828.885 C1078.259,829.413669 1078.701,830.04633 1078.987,830.783 C1079.273,831.51967 1079.416,832.325662 1079.416,833.201 C1079.416,834.111005 1079.26433,834.945163 1078.961,835.7035 C1078.65767,836.461837 1078.20267,837.113997 1077.596,837.66 C1076.98933,838.206003 1076.231,838.630665 1075.321,838.934 C1074.411,839.237335 1073.34501,839.389 1072.123,839.389 L1069.497,839.389 Z M1069.497,836.659 L1072.123,836.659 C1072.76434,836.659 1073.32333,836.578834 1073.8,836.4185 C1074.27667,836.258166 1074.671,836.028501 1074.983,835.7295 C1075.295,835.430499 1075.529,835.066502 1075.685,834.6375 C1075.841,834.208498 1075.919,833.729669 1075.919,833.201 C1075.919,832.698331 1075.841,832.243335 1075.685,831.836 C1075.529,831.428665 1075.295,831.082001 1074.983,830.796 C1074.671,830.509999 1074.27667,830.291167 1073.8,830.1395 C1073.32333,829.987833 1072.76434,829.912 1072.123,829.912 L1069.497,829.912 L1069.497,836.659 Z M1090.63,843.12 L1098.157,843.12 L1098.157,846.006 L1087.133,846.006 L1087.133,827.208 L1090.63,827.208 L1090.63,843.12 Z M1122.098,846.006 L1119.394,846.006 C1119.09067,846.006 1118.8415,845.930167 1118.6465,845.7785 C1118.4515,845.626833 1118.31067,845.438334 1118.224,845.213 L1116.82,841.378 L1109.033,841.378 L1107.629,845.213 C1107.55967,845.412334 1107.42317,845.594333 1107.2195,845.759 C1107.01583,845.923667 1106.76667,846.006 1106.472,846.006 L1103.755,846.006 L1111.139,827.208 L1114.714,827.208 L1122.098,846.006 Z M1109.93,838.908 L1115.923,838.908 L1113.635,832.655 C1113.531,832.377665 1113.41617,832.050502 1113.2905,831.6735 C1113.16483,831.296498 1113.04133,830.887002 1112.92,830.445 C1112.79867,830.887002 1112.6795,831.298665 1112.5625,831.68 C1112.4455,832.061335 1112.33067,832.394999 1112.218,832.681 L1109.93,838.908 Z M1135.028,838.7 L1135.028,846.006 L1131.531,846.006 L1131.531,838.7 L1124.68,827.208 L1127.761,827.208 C1128.06433,827.208 1128.30483,827.281666 1128.4825,827.429 C1128.66017,827.576334 1128.80967,827.762666 1128.931,827.988 L1132.376,834.267 C1132.57533,834.639669 1132.74867,834.992832 1132.896,835.3265 C1133.04333,835.660168 1133.17767,835.987332 1133.299,836.308 C1133.41167,835.978665 1133.5395,835.647168 1133.6825,835.3135 C1133.8255,834.979832 1133.99667,834.631002 1134.196,834.267 L1137.615,827.988 C1137.71033,827.797332 1137.85333,827.619667 1138.044,827.455 C1138.23467,827.290333 1138.47733,827.208 1138.772,827.208 L1141.866,827.208 L1135.028,838.7 Z M1168.779,830.627 C1168.68367,830.817668 1168.57317,830.952 1168.4475,831.03 C1168.32183,831.108 1168.17233,831.147 1167.999,831.147 C1167.82567,831.147 1167.63067,831.079834 1167.414,830.9455 C1167.19733,830.811166 1166.94167,830.661667 1166.647,830.497 C1166.35233,830.332333 1166.00784,830.182834 1165.6135,830.0485 C1165.21916,829.914166 1164.75334,829.847 1164.216,829.847 C1163.73066,829.847 1163.30817,829.905499 1162.9485,830.0225 C1162.58883,830.139501 1162.2855,830.301999 1162.0385,830.51 C1161.7915,830.718001 1161.60733,830.967165 1161.486,831.2575 C1161.36467,831.547835 1161.304,831.866332 1161.304,832.213 C1161.304,832.655002 1161.4275,833.023332 1161.6745,833.318 C1161.9215,833.612668 1162.24866,833.863999 1162.656,834.072 C1163.06334,834.280001 1163.527,834.466333 1164.047,834.631 C1164.567,834.795667 1165.09783,834.971166 1165.6395,835.1575 C1166.18117,835.343834 1166.712,835.560499 1167.232,835.8075 C1167.752,836.054501 1168.21566,836.366498 1168.623,836.7435 C1169.03034,837.120502 1169.3575,837.581997 1169.6045,838.128 C1169.8515,838.674003 1169.975,839.336996 1169.975,840.117 C1169.975,840.966338 1169.82983,841.761496 1169.5395,842.5025 C1169.24917,843.243504 1168.8245,843.889164 1168.2655,844.4395 C1167.7065,844.989836 1167.024,845.423165 1166.218,845.7395 C1165.412,846.055835 1164.48901,846.214 1163.449,846.214 C1162.851,846.214 1162.26167,846.155501 1161.681,846.0385 C1161.10033,845.921499 1160.5435,845.754668 1160.0105,845.538 C1159.4775,845.321332 1158.97917,845.061335 1158.5155,844.758 C1158.05183,844.454665 1157.638,844.116669 1157.274,843.744 L1158.288,842.067 C1158.38333,841.945666 1158.49817,841.843834 1158.6325,841.7615 C1158.76683,841.679166 1158.91633,841.638 1159.081,841.638 C1159.29767,841.638 1159.53167,841.726832 1159.783,841.9045 C1160.03433,842.082168 1160.33116,842.279332 1160.6735,842.496 C1161.01584,842.712668 1161.41883,842.909832 1161.8825,843.0875 C1162.34617,843.265168 1162.903,843.354 1163.553,843.354 C1164.54967,843.354 1165.321,843.117836 1165.867,842.6455 C1166.413,842.173164 1166.686,841.495004 1166.686,840.611 C1166.686,840.116998 1166.5625,839.714002 1166.3155,839.402 C1166.0685,839.089998 1165.74134,838.827834 1165.334,838.6155 C1164.92666,838.403166 1164.463,838.223334 1163.943,838.076 C1163.423,837.928666 1162.89434,837.768334 1162.357,837.595 C1161.81966,837.421666 1161.291,837.213668 1160.771,836.971 C1160.251,836.728332 1159.78734,836.412002 1159.38,836.022 C1158.97266,835.631998 1158.6455,835.144503 1158.3985,834.5595 C1158.1515,833.974497 1158.028,833.253004 1158.028,832.395 C1158.028,831.71033 1158.1645,831.043003 1158.4375,830.393 C1158.7105,829.742997 1159.10916,829.166669 1159.6335,828.664 C1160.15784,828.161331 1160.80133,827.758335 1161.564,827.455 C1162.32667,827.151665 1163.19766,827 1164.177,827 C1165.28634,827 1166.309,827.173332 1167.245,827.52 C1168.181,827.866668 1168.97833,828.351997 1169.637,828.976 L1168.779,830.627 Z M1193.513,846.006 L1189.99,846.006 L1189.99,837.79 L1181.176,837.79 L1181.176,846.006 L1177.653,846.006 L1177.653,827.208 L1181.176,827.208 L1181.176,835.294 L1189.99,835.294 L1189.99,827.208 L1193.513,827.208 L1193.513,846.006 Z M1220.34,836.607 C1220.34,837.985007 1220.11034,839.261161 1219.651,840.4355 C1219.19166,841.609839 1218.546,842.625996 1217.714,843.484 C1216.882,844.342004 1215.88101,845.011498 1214.711,845.4925 C1213.54099,845.973502 1212.24534,846.214 1210.824,846.214 C1209.40266,846.214 1208.10484,845.973502 1206.9305,845.4925 C1205.75616,845.011498 1204.75084,844.342004 1203.9145,843.484 C1203.07816,842.625996 1202.43034,841.609839 1201.971,840.4355 C1201.51166,839.261161 1201.282,837.985007 1201.282,836.607 C1201.282,835.228993 1201.51166,833.952839 1201.971,832.7785 C1202.43034,831.604161 1203.07816,830.588004 1203.9145,829.73 C1204.75084,828.871996 1205.75616,828.202502 1206.9305,827.7215 C1208.10484,827.240498 1209.40266,827 1210.824,827 C1212.24534,827 1213.54099,827.242664 1214.711,827.728 C1215.88101,828.213336 1216.882,828.882829 1217.714,829.7365 C1218.546,830.590171 1219.19166,831.604161 1219.651,832.7785 C1220.11034,833.952839 1220.34,835.228993 1220.34,836.607 Z M1216.752,836.607 C1216.752,835.575662 1216.6155,834.650504 1216.3425,833.8315 C1216.0695,833.012496 1215.67734,832.317003 1215.166,831.745 C1214.65466,831.172997 1214.03284,830.735335 1213.3005,830.432 C1212.56816,830.128665 1211.74267,829.977 1210.824,829.977 C1209.90533,829.977 1209.07767,830.128665 1208.341,830.432 C1207.60433,830.735335 1206.97817,831.172997 1206.4625,831.745 C1205.94683,832.317003 1205.55033,833.012496 1205.273,833.8315 C1204.99567,834.650504 1204.857,835.575662 1204.857,836.607 C1204.857,837.638338 1204.99567,838.563496 1205.273,839.3825 C1205.55033,840.201504 1205.94683,840.89483 1206.4625,841.4625 C1206.97817,842.03017 1207.60433,842.465665 1208.341,842.769 C1209.07767,843.072335 1209.90533,843.224 1210.824,843.224 C1211.74267,843.224 1212.56816,843.072335 1213.3005,842.769 C1214.03284,842.465665 1214.65466,842.03017 1215.166,841.4625 C1215.67734,840.89483 1216.0695,840.201504 1216.3425,839.3825 C1216.6155,838.563496 1216.752,837.638338 1216.752,836.607 Z M1226.354,827.208 L1229.292,827.208 C1229.59533,827.208 1229.84883,827.279499 1230.0525,827.4225 C1230.25617,827.565501 1230.39267,827.758332 1230.462,828.001 L1233.66,839.246 C1233.738,839.523335 1233.8095,839.824498 1233.8745,840.1495 C1233.9395,840.474502 1234.00233,840.818998 1234.063,841.183 C1234.13233,840.818998 1234.20817,840.474502 1234.2905,840.1495 C1234.37283,839.824498 1234.46167,839.523335 1234.557,839.246 L1238.249,828.001 C1238.31833,827.801666 1238.45483,827.619667 1238.6585,827.455 C1238.86217,827.290333 1239.11133,827.208 1239.406,827.208 L1240.433,827.208 C1240.73633,827.208 1240.98767,827.279499 1241.187,827.4225 C1241.38633,827.565501 1241.525,827.758332 1241.603,828.001 L1245.269,839.246 C1245.45967,839.800669 1245.62433,840.415997 1245.763,841.092 C1245.82367,840.753998 1245.8865,840.429002 1245.9515,840.117 C1246.0165,839.804998 1246.08367,839.514668 1246.153,839.246 L1249.351,828.001 C1249.41167,827.784332 1249.546,827.598001 1249.754,827.442 C1249.962,827.285999 1250.21333,827.208 1250.508,827.208 L1253.251,827.208 L1247.414,846.006 L1244.255,846.006 L1240.147,833.162 C1240.095,832.997333 1240.04083,832.819668 1239.9845,832.629 C1239.92817,832.438332 1239.874,832.234668 1239.822,832.018 C1239.77,832.234668 1239.71583,832.438332 1239.6595,832.629 C1239.60317,832.819668 1239.549,832.997333 1239.497,833.162 L1235.35,846.006 L1232.191,846.006 L1226.354,827.208 Z M1263.919,838.661 L1263.919,846.006 L1260.422,846.006 L1260.422,827.208 L1266.155,827.208 C1267.43767,827.208 1268.53616,827.340165 1269.4505,827.6045 C1270.36484,827.868835 1271.1145,828.239331 1271.6995,828.716 C1272.2845,829.192669 1272.7135,829.762497 1272.9865,830.4255 C1273.2595,831.088503 1273.396,831.818663 1273.396,832.616 C1273.396,833.24867 1273.30283,833.846664 1273.1165,834.41 C1272.93017,834.973336 1272.6615,835.484664 1272.3105,835.944 C1271.9595,836.403336 1271.52617,836.806332 1271.0105,837.153 C1270.49483,837.499668 1269.90767,837.776999 1269.249,837.985 C1269.691,838.236335 1270.07233,838.595998 1270.393,839.064 L1275.099,846.006 L1271.953,846.006 C1271.64967,846.006 1271.39183,845.945334 1271.1795,845.824 C1270.96717,845.702666 1270.78733,845.529334 1270.64,845.304 L1266.688,839.285 C1266.54067,839.059666 1266.37817,838.899334 1266.2005,838.804 C1266.02283,838.708666 1265.76067,838.661 1265.414,838.661 L1263.919,838.661 Z M1263.919,836.152 L1266.103,836.152 C1266.76167,836.152 1267.33583,836.069667 1267.8255,835.905 C1268.31517,835.740333 1268.71817,835.512835 1269.0345,835.2225 C1269.35083,834.932165 1269.587,834.587669 1269.743,834.189 C1269.899,833.790331 1269.977,833.352669 1269.977,832.876 C1269.977,831.922662 1269.66284,831.190336 1269.0345,830.679 C1268.40616,830.167664 1267.44634,829.912 1266.155,829.912 L1263.919,829.912 L1263.919,836.152 Z M1294.191,827.208 L1294.191,829.99 L1285.858,829.99 L1285.858,835.203 L1292.423,835.203 L1292.423,837.894 L1285.858,837.894 L1285.858,843.211 L1294.191,843.211 L1294.191,846.006 L1282.335,846.006 L1282.335,827.208 L1294.191,827.208 Z M1314.076,827.208 L1314.076,829.99 L1305.743,829.99 L1305.743,835.203 L1312.308,835.203 L1312.308,837.894 L1305.743,837.894 L1305.743,843.211 L1314.076,843.211 L1314.076,846.006 L1302.22,846.006 L1302.22,827.208 L1314.076,827.208 Z M1325.602,843.12 L1333.129,843.12 L1333.129,846.006 L1322.105,846.006 L1322.105,827.208 L1325.602,827.208 L1325.602,843.12 Z" id="PLAY-SHOWREEL" fill="#FFFFFF"></path>
            <g id="Logo-horizontal" transform="translate(680.000000, 546.000000)" fill="#FFFFFF">
                <path d="M115.542002,231.434005 C51.7299164,231.434005 0,179.704088 0,115.892002 C0,52.0799166 51.7299164,0.350000143 115.542002,0.350000143 C179.354088,0.350000143 231.084004,52.0799166 231.084004,115.892002 C231.003016,179.670511 179.320511,231.353016 115.542002,231.434005 Z M115.542002,47.0225011 C87.650476,47.0225011 62.5067185,63.8279037 51.8399728,89.5991624 C41.1732271,115.370421 47.0851815,145.029793 66.8179846,164.741559 C86.5507877,184.453325 116.216449,190.33364 141.976315,179.639411 C167.736181,168.945182 184.514739,143.783513 184.485043,115.892002 C184.444441,77.8445408 153.589485,47.0225011 115.542002,47.0225011 Z" id="Shape"></path>
                <path d="M475.177509,231.434005 C462.297607,231.434005 451.845012,221.014343 451.804509,208.134504 L451.804509,115.892002 C451.763999,77.8732196 420.95379,47.0630112 382.935007,47.0225011 L380.362507,47.0225011 C343.023229,49.3233732 313.985645,80.3935879 314.212506,117.803002 L314.212506,208.134504 C314.212506,221.002463 303.780964,231.434005 290.913006,231.434005 C278.045047,231.434005 267.613433,221.002463 267.613433,208.134504 L267.613433,117.950002 C267.544414,55.0945628 316.914621,3.29631268 379.701007,0.350000143 L382.935007,0.350000143 C446.713517,0.430988824 498.396021,52.1134933 498.47701,115.892002 L498.47701,208.134504 C498.43666,220.985713 488.028718,231.393655 475.177509,231.434005 Z" id="Path"></path>
                <path d="M658.780513,231.434066 C595.843579,231.497759 544.012642,181.999214 541.180511,119.126002 C540.327792,87.9444872 552.110933,57.7414324 573.854229,35.3753175 C595.597525,13.0092026 625.455853,0.378003449 656.649013,0.350000143 L748.818015,0.350000143 C757.467773,-0.135627066 765.676616,4.20298024 770.147802,11.6234005 C774.618989,19.0438209 774.618989,28.3286803 770.147802,35.7491006 C765.676616,43.169521 757.467773,47.5081283 748.818015,47.0225011 L656.649013,47.0225011 C637.974114,47.0493433 620.112537,54.6670387 607.166296,68.1261398 C594.220054,81.5852409 587.301678,99.7291457 588.000011,118.391002 C590.300884,155.730281 621.371098,184.767865 658.780513,184.541004 L749.038515,184.541004 C757.362625,184.541003 765.054419,188.981863 769.216474,196.190754 C773.378529,203.399644 773.378529,212.281364 769.216474,219.490255 C765.054419,226.699145 757.362625,231.140005 749.038515,231.140005 L658.780513,231.434066 Z" id="Path"></path>
                <path d="M923.968518,231.434014 C892.762597,231.446809 862.880148,218.828441 841.127963,196.453184 C819.375779,174.077926 807.606145,143.851121 808.500016,112.658002 C811.332147,49.7847906 863.163084,0.286245626 926.100018,0.349938625 L1016.13752,0.349938625 C1028.51757,1.04505901 1038.20034,11.2867006 1038.20034,23.6862506 C1038.20034,36.0858006 1028.51757,46.3274422 1016.13752,47.0225011 L923.968518,47.0225011 C894.771528,46.9171911 868.71668,65.3296768 859.068017,92.8865019 L957.852019,92.8865019 C970.232073,93.5815608 979.914842,103.823202 979.914842,116.222752 C979.914842,128.622302 970.232073,138.863944 957.852019,139.559003 L859.362017,139.559003 C869.19132,166.767886 895.038665,184.881612 923.968518,184.835004 L1016.21102,184.835004 C1029.07898,184.835004 1039.51052,195.266545 1039.51052,208.134504 C1039.51052,221.002463 1029.07898,231.434014 1016.21102,231.434014 L923.968518,231.434014 Z" id="Path"></path>
            </g>
        </g>
    </g>
</svg>