<svg xmlns="http://www.w3.org/2000/svg" viewBox="0 0 67.82 87.37"><title>Asset 11</title><g id="Layer_2" data-name="Layer 2"><g id="Black"><path d="M15.72,31.44A15.72,15.72,0,1,1,31.44,15.72,15.74,15.74,0,0,1,15.72,31.44Zm0-25.09a9.38,9.38,0,1,0,9.38,9.37A9.38,9.38,0,0,0,15.72,6.35Z"/><path d="M64.65,31.44a3.18,3.18,0,0,1-3.18-3.17V15.72A9.38,9.38,0,0,0,52.1,6.35h-.35a9.59,9.59,0,0,0-9,9.63V28.27a3.17,3.17,0,0,1-6.34,0V16A16,16,0,0,1,51.66,0h.44A15.74,15.74,0,0,1,67.82,15.72V28.27A3.18,3.18,0,0,1,64.65,31.44Z"/><path d="M16,67.82A16,16,0,0,1,0,52.54,15.71,15.71,0,0,1,15.72,36.38H28.27a3.17,3.17,0,1,1,0,6.34H15.72a9.38,9.38,0,0,0-9.37,9.72,9.59,9.59,0,0,0,9.63,9H28.27a3.18,3.18,0,0,1,0,6.35Z"/><path d="M52.1,67.82A15.73,15.73,0,0,1,36.38,51.66a16,16,0,0,1,16-15.28H64.65a3.17,3.17,0,0,1,0,6.34H52.1A9.31,9.31,0,0,0,43.27,49H56.71a3.18,3.18,0,0,1,0,6.35H43.3a9.33,9.33,0,0,0,8.8,6.15H64.65a3.18,3.18,0,0,1,0,6.35Z"/><path d="M4.72,83.14a1.87,1.87,0,0,0-1.24-.45,1.52,1.52,0,0,0-1.08.42,1.61,1.61,0,0,0,0,2.17,1.55,1.55,0,0,0,1.15.48,1.85,1.85,0,0,0,1.21-.47V87a2.89,2.89,0,0,1-1.5.36,3.15,3.15,0,0,1-2.29-.89A3,3,0,0,1,0,84.24a3.15,3.15,0,0,1,1-2.33,3.11,3.11,0,0,1,2.25-.84,3.3,3.3,0,0,1,1.49.33Z"/><path d="M13.21,86.42a3.64,3.64,0,0,1-2.58,1,3.64,3.64,0,0,1-2.58-1,3.16,3.16,0,0,1,0-4.4,3.68,3.68,0,0,1,2.58-1,3.68,3.68,0,0,1,2.58,1,3.19,3.19,0,0,1,0,4.4ZM9.55,83.11a1.53,1.53,0,0,0-.43,1.11,1.51,1.51,0,0,0,.43,1.11,1.48,1.48,0,0,0,1.09.43,1.49,1.49,0,0,0,1.5-1.54,1.5,1.5,0,0,0-.44-1.11,1.59,1.59,0,0,0-2.15,0Z"/><path d="M18.7,77.53v9.64H16.79V77.53Z"/><path d="M23.65,77.53v9.64H21.74V77.53Z"/><path d="M32.68,84.55h-4.4a1.62,1.62,0,0,0,.36,1,1.26,1.26,0,0,0,1,.37,1.55,1.55,0,0,0,.76-.17,1.2,1.2,0,0,0,.41-.49l1.8.18a2.56,2.56,0,0,1-1.14,1.48,3.42,3.42,0,0,1-1.86.44,3.06,3.06,0,0,1-2.36-.85,3.17,3.17,0,0,1-.88-2.27,3.34,3.34,0,0,1,.9-2.33,3.06,3.06,0,0,1,2.26-.85,3.11,3.11,0,0,1,2.34.89,3.37,3.37,0,0,1,.83,2.39Zm-1.75-1.14a1.57,1.57,0,0,0-.39-.68,1.27,1.27,0,0,0-.9-.33,1.25,1.25,0,0,0-1,.38,1.37,1.37,0,0,0-.34.63Z"/><path d="M39.77,83.14a1.89,1.89,0,0,0-1.25-.45,1.55,1.55,0,0,0-1.12,2.59,1.55,1.55,0,0,0,1.15.48,1.89,1.89,0,0,0,1.22-.47V87a3,3,0,0,1-1.51.36A3.15,3.15,0,0,1,36,86.48,3,3,0,0,1,35,84.24a3.19,3.19,0,0,1,1-2.33,3.11,3.11,0,0,1,2.25-.84,3.37,3.37,0,0,1,1.5.33Z"/><path d="M44.73,82.81v4.36H42.82V82.81h-.66V81.27h.66v-1.9h1.91v1.9h1.18v1.54Z"/><path d="M49.27,77.64a1.12,1.12,0,1,1-1.12,1.12A1.1,1.1,0,0,1,49.27,77.64Zm.95,3.63v5.9H48.31v-5.9Z"/><path d="M54.67,81.27l1.49,3.16,1.5-3.16h2.09l-3,5.9H55.57l-3-5.9Z"/><path d="M67.82,84.55H63.41a1.62,1.62,0,0,0,.36,1,1.27,1.27,0,0,0,1,.37,1.56,1.56,0,0,0,.77-.17,1.29,1.29,0,0,0,.41-.49l1.8.18a2.64,2.64,0,0,1-1.14,1.48,3.47,3.47,0,0,1-1.87.44,3,3,0,0,1-2.35-.85,3.13,3.13,0,0,1-.89-2.27,3.34,3.34,0,0,1,.9-2.33,3.06,3.06,0,0,1,2.26-.85A3.13,3.13,0,0,1,67,82a3.37,3.37,0,0,1,.83,2.39Zm-1.76-1.14a1.62,1.62,0,0,0-.38-.68,1.31,1.31,0,0,0-.91-.33,1.25,1.25,0,0,0-1.29,1Z"/></g></g></svg>