<?xml version="1.0" encoding="UTF-8"?>
<svg width="68px" height="88px" viewBox="0 0 68 88" version="1.1" xmlns="http://www.w3.org/2000/svg" xmlns:xlink="http://www.w3.org/1999/xlink">
    <!-- Generator: Sketch 60.1 (88133) - https://sketch.com -->
    <title>logo</title>
    <desc>Created with Sketch.</desc>
    <g id="Page-1" stroke="none" stroke-width="1" fill="none" fill-rule="evenodd">
        <g id="logo" transform="translate(-1.000000, 0.000000)" fill="#FFFFFF" fill-rule="nonzero">
            <path d="M16.72,31.44 C8.03808373,31.44 1,24.4019163 1,15.72 C1,7.03808373 8.03808373,0 16.72,0 C25.4019163,0 32.44,7.03808373 32.44,15.72 C32.4289811,24.397348 25.397348,31.4289811 16.72,31.44 Z M16.72,6.35 C12.9252346,6.35 9.50431528,8.6364493 8.05305739,12.1427429 C6.60179949,15.6490366 7.40614702,19.6843252 10.0908821,22.3661981 C12.7756172,25.048071 16.8117615,25.8481137 20.3165051,24.3931166 C23.8212487,22.9381195 26.1040456,19.5147632 26.1000054,15.72 C26.0944813,10.5434747 21.8965282,6.35 16.72,6.35 Z" id="Shape"></path>
            <path d="M65.65,31.44 C63.8976323,31.44 62.4755106,30.022359 62.47,28.27 L62.47,15.72 C62.4644884,10.5473766 58.2726234,6.35551159 53.1,6.35 L52.75,6.35 C47.6698261,6.66304382 43.7191345,10.8902838 43.75,15.98 L43.75,28.27 C43.75,30.0207427 42.3307427,31.44 40.58,31.44 C38.8292573,31.44 37.4099901,30.0207427 37.4099901,28.27 L37.4099901,16 C37.4005998,7.44823967 44.1176347,0.400858841 52.66,0 L53.1,0 C61.777348,0.0110188679 68.8089811,7.042652 68.82,15.72 L68.82,28.27 C68.8145103,30.0184637 67.3984637,31.4345103 65.65,31.44 Z" id="Path"></path>
            <path d="M17,67.8200084 C8.43715201,67.8286741 1.38532396,61.0941783 1,52.54 C0.878333246,48.2943026 2.48099993,44.180262 5.44265959,41.135706 C8.40431926,38.09115 12.472562,36.3755534 16.72,36.3799914 L29.27,36.3799914 C31.0207427,36.3799914 32.44,37.7992573 32.44,39.55 C32.44,41.3007427 31.0207427,42.72 29.27,42.72 L16.72,42.72 C14.17396,42.7210412 11.7377225,43.7570145 9.97070462,45.5900362 C8.20368676,47.423058 7.25771262,49.8956329 7.35,52.44 C7.66304382,57.5201739 11.8902838,61.4708655 16.98,61.44 L29.27,61.44 C30.954361,61.5345658 32.2717446,62.9279864 32.2717446,64.615 C32.2717446,66.3020136 30.954361,67.6954342 29.27,67.79 L17,67.8200084 Z" id="Path"></path>
            <path d="M53.1,67.82 C48.8542973,67.8188875 44.7893399,66.1015422 41.8288917,63.0582316 C38.8684435,60.0149209 37.263938,55.9041162 37.38,51.66 C37.765324,43.1058217 44.817152,36.3713259 53.38,36.3799916 L65.65,36.3799916 C67.4007427,36.3799916 68.82,37.7992573 68.82,39.55 C68.82,41.3007427 67.4007427,42.72 65.65,42.72 L53.1,42.72 C49.1161883,42.7085103 45.5665462,45.2330575 44.27,49 L57.71,49 C59.394361,49.0945658 60.7117446,50.4879864 60.7117446,52.175 C60.7117446,53.8620136 59.394361,55.2554342 57.71,55.35 L44.3,55.35 C45.6419012,59.0514035 49.1628765,61.5120852 53.1,61.5 L65.65,61.5 C67.334361,61.5945658 68.6517446,62.9879864 68.6517446,64.675 C68.6517446,66.3620136 67.334361,67.7554342 65.65,67.85 L53.1,67.82 Z" id="Path"></path>
            <path d="M5.72,83.14 C5.37505211,82.8443539 4.93427333,82.6843938 4.48,82.69 C4.07866411,82.6818988 3.69041786,82.8328834 3.4,83.11 C2.83931358,83.7246804 2.83931358,84.6653196 3.4,85.28 C3.69930378,85.5938343 4.11639662,85.7679252 4.55,85.76 C4.99686207,85.7546223 5.42667327,85.5876708 5.76,85.29 L5.76,87 C5.30185314,87.2536908 4.78338235,87.3781238 4.26,87.36 C3.40766856,87.3855164 2.5814061,87.0643926 1.97,86.47 C1.34637874,85.8969165 0.994053391,85.0869314 1,84.24 C0.992235979,83.3575447 1.35500195,82.5122999 2,81.91 C2.60726856,81.3400206 3.41777957,81.0374298 4.25,81.07 C4.76562876,81.0620681 5.27594021,81.1750901 5.74,81.4 L5.72,83.14 Z" id="Path"></path>
            <path d="M14.21,86.42 C13.5151636,87.0799547 12.5881055,87.4392795 11.63,87.42 C10.6718945,87.4392795 9.74483644,87.0799547 9.05,86.42 C7.86118867,85.194232 7.86118867,83.245768 9.05,82.02 C9.74716361,81.3637277 10.6726569,81.0050093 11.63,81.02 C12.5873431,81.0050093 13.5128364,81.3637277 14.21,82.02 C15.3833333,83.252 15.3833333,85.188 14.21,86.42 L14.21,86.42 Z M10.55,83.11 C10.2627074,83.4067861 10.1076212,83.807125 10.12,84.22 C10.1052926,84.6332709 10.2607198,85.03449 10.55,85.33 C10.8387046,85.6171842 11.2329825,85.7727251 11.64,85.76 C12.0457224,85.7629519 12.435103,85.600322 12.7182002,85.3096755 C13.0012974,85.0190291 13.1536259,84.6255043 13.14,84.22 C13.1532618,83.805053 12.9939557,83.403167 12.7,83.11 C12.0919348,82.5520357 11.1580652,82.5520357 10.55,83.11 L10.55,83.11 Z" id="Shape"></path>
            <polygon id="Path" points="19.7 77.53 19.7 87.17 17.79 87.17 17.79 77.53"></polygon>
            <polygon id="Path" points="24.65 77.53 24.65 87.17 22.74 87.17 22.74 77.53"></polygon>
            <path d="M33.68,84.55 L29.28,84.55 C29.2841299,84.9143326 29.4109589,85.2666354 29.64,85.55 C29.9021519,85.8152448 30.2683363,85.9507331 30.64,85.92 C30.9036727,85.9289362 31.1652628,85.8704227 31.4,85.75 C31.5784355,85.6267184 31.7201244,85.4573828 31.81,85.26 L33.61,85.44 C33.4299978,86.0593225 33.0228642,86.587882 32.47,86.92 C31.9044166,87.2404565 31.2592168,87.3930844 30.61,87.36 C29.7380122,87.4269306 28.8790565,87.117561 28.25,86.51 C27.6662117,85.9006287 27.349492,85.0836359 27.37,84.24 C27.3573699,83.3761653 27.6799505,82.54104 28.27,81.91 C28.8749758,81.3288627 29.6920025,81.0215738 30.53,81.06 C31.400238,81.0157553 32.2491228,81.3386218 32.87,81.95 C33.4465639,82.6086377 33.74423,83.4657728 33.7,84.34 L33.68,84.55 Z M31.93,83.41 C31.8595889,83.1540031 31.7254063,82.9200438 31.54,82.73 C31.294626,82.5066568 30.9715895,82.3882101 30.64,82.4 C30.2665663,82.3704266 29.8995544,82.5098911 29.64,82.78 C29.4728325,82.9561539 29.3554929,83.1735772 29.3,83.41 L31.93,83.41 Z" id="Shape"></path>
            <path d="M40.77,83.14 C40.4215193,82.843674 39.977394,82.6837889 39.52,82.69 C38.9124357,82.7013919 38.3675706,83.0667601 38.1263792,83.6245153 C37.8851878,84.1822705 37.9921655,84.8295167 38.4,85.28 C38.6993038,85.5938343 39.1163966,85.7679252 39.55,85.76 C39.9996298,85.7534559 40.4321947,85.5868121 40.77,85.29 L40.77,87 C40.3069678,87.2503995 39.7862004,87.374556 39.26,87.36 C38.4194104,87.3800538 37.6056914,87.0632075 37,86.48 C36.3626768,85.9099621 35.99888,85.0950572 35.9999827,84.24 C35.9970983,83.3585287 36.3590649,82.5151465 37,81.91 C37.6072686,81.3400206 38.4177796,81.0374298 39.25,81.07 C39.7687353,81.0630779 40.2820653,81.1760105 40.75,81.4 L40.77,83.14 Z" id="Path"></path>
            <polygon id="Path" points="45.73 82.81 45.73 87.17 43.82 87.17 43.82 82.81 43.16 82.81 43.16 81.27 43.82 81.27 43.82 79.37 45.73 79.37 45.73 81.27 46.91 81.27 46.91 82.81"></polygon>
            <path d="M50.27,77.64 C50.8885589,77.64 51.39,78.1414411 51.39,78.76 C51.39,79.3785589 50.8885589,79.88 50.27,79.88 C49.6514411,79.88 49.15,79.3785589 49.15,78.76 C49.1445181,78.4613107 49.2607565,78.1732381 49.4719973,77.9619973 C49.6832381,77.7507565 49.9713107,77.6345181 50.27,77.64 Z M51.22,81.27 L51.22,87.17 L49.31,87.17 L49.31,81.27 L51.22,81.27 Z" id="Shape"></path>
            <polygon id="Path" points="55.67 81.27 57.16 84.43 58.66 81.27 60.75 81.27 57.75 87.17 56.57 87.17 53.57 81.27"></polygon>
            <path d="M68.82,84.55 L64.41,84.55 C64.4141299,84.9143326 64.5409589,85.2666354 64.77,85.55 C65.032911,85.8140654 65.3985277,85.9493436 65.77,85.92 C66.0369897,85.9302082 66.3021266,85.8716715 66.54,85.75 C66.715592,85.6236298 66.8565828,85.4551286 66.95,85.26 L68.75,85.44 C68.5630849,86.0557886 68.1576829,86.5821 67.61,86.92 C67.0404959,87.2397278 66.39232,87.3922398 65.74,87.36 C64.8703241,87.4319382 64.0124261,87.1216346 63.39,86.51 C62.7986958,85.9047393 62.4776378,85.0858612 62.5,84.24 C62.4873699,83.3761653 62.8099505,82.54104 63.4,81.91 C64.0049758,81.3288627 64.8220025,81.0215738 65.66,81.06 C66.5372999,81.0313611 67.3863107,81.3724167 68,82 C68.5765639,82.6586377 68.87423,83.5157728 68.83,84.39 L68.82,84.55 Z M67.06,83.41 C66.9905259,83.1558001 66.8600886,82.9223859 66.68,82.73 C66.4299224,82.5078543 66.10434,82.3897859 65.77,82.4 C65.1516812,82.3678475 64.6029954,82.7931853 64.48,83.4 L67.06,83.41 Z" id="Shape"></path>
        </g>
    </g>
</svg>