<?xml version="1.0" encoding="UTF-8"?>
<svg width="142px" height="32px" viewBox="0 0 142 32" version="1.1" xmlns="http://www.w3.org/2000/svg" xmlns:xlink="http://www.w3.org/1999/xlink">
    <!-- Generator: Sketch 60.1 (88133) - https://sketch.com -->
    <title>Logo horizontal</title>
    <desc>Created with Sketch.</desc>
    <g id="Page-1" stroke="none" stroke-width="1" fill="none" fill-rule="evenodd">
        <g id="Logo-horizontal" transform="translate(0.000000, -1.000000)" fill="#FFFFFF" fill-rule="nonzero">
            <path d="M15.72,32.44 C7.03808373,32.44 0,25.4019163 0,16.72 C0,8.03808373 7.03808373,1 15.72,1 C24.4019163,1 31.44,8.03808373 31.44,16.72 C31.4289811,25.397348 24.397348,32.4289811 15.72,32.44 Z M15.72,7.35 C11.9252346,7.35 8.50431528,9.6364493 7.05305739,13.1427429 C5.60179949,16.6490366 6.40614702,20.6843252 9.09088209,23.3661981 C11.7756172,26.048071 15.8117615,26.8481137 19.3165051,25.3931166 C22.8212487,23.9381195 25.1040456,20.5147632 25.1000054,16.72 C25.0944813,11.5434747 20.8965282,7.35 15.72,7.35 Z" id="Shape"></path>
            <path d="M64.65,32.44 C62.8976323,32.44 61.4755106,31.022359 61.47,29.27 L61.47,16.72 C61.4644884,11.5473766 57.2726234,7.35551159 52.1,7.35 L51.75,7.35 C46.6698261,7.66304382 42.7191345,11.8902838 42.75,16.98 L42.75,29.27 C42.75,31.0207427 41.3307427,32.44 39.58,32.44 C37.8292573,32.44 36.4099901,31.0207427 36.4099901,29.27 L36.4099901,17 C36.4005998,8.44823967 43.1176347,1.40085884 51.66,1 L52.1,1 C60.777348,1.01101887 67.8089811,8.042652 67.82,16.72 L67.82,29.27 C67.8145103,31.0184637 66.3984637,32.4345103 64.65,32.44 Z" id="Path"></path>
            <path d="M89.63,32.4400084 C81.067152,32.4486741 74.015324,25.7141783 73.63,17.16 C73.5139839,12.9176171 75.1171322,8.80835798 78.0754038,5.76534921 C81.0336753,2.72234044 85.0960327,1.00380997 89.34,1 L101.88,1 C103.056838,0.933928272 104.173687,1.52421497 104.782012,2.53379594 C105.390337,3.54337692 105.390337,4.80662308 104.782012,5.81620406 C104.173687,6.82578503 103.056838,7.41607173 101.88,7.35 L89.34,7.35 C86.7991975,7.35365201 84.369051,8.39007313 82.6076577,10.2212433 C80.8462643,12.0524135 79.9049886,14.5209719 80,17.06 C80.3130438,22.1401739 84.5402838,26.0908655 89.63,26.06 L101.91,26.06 C103.042532,26.06 104.089035,26.6641985 104.655301,27.645 C105.221567,28.6258014 105.221567,29.8341986 104.655301,30.815 C104.089035,31.7958015 103.042532,32.4 101.91,32.4 L89.63,32.4400084 Z" id="Path"></path>
            <path d="M125.71,32.4400013 C121.464297,32.4417421 117.398657,30.7249574 114.439176,27.6807047 C111.479696,24.636452 109.878385,20.5239617 110,16.28 C110.385324,7.7258217 117.437152,0.991325916 126,0.99999163 L138.25,0.99999163 C139.934361,1.09456583 141.251745,2.48798642 141.251745,4.175 C141.251745,5.86201358 139.934361,7.25543417 138.25,7.35 L125.71,7.35 C121.73762,7.33567211 118.192743,9.84077216 116.88,13.59 L130.32,13.59 C132.004361,13.6845658 133.321745,15.0779864 133.321745,16.765 C133.321745,18.4520136 132.004361,19.8454342 130.32,19.94 L116.92,19.94 C118.25732,23.6418889 121.773966,26.1063412 125.71,26.1 L138.26,26.1 C140.010743,26.1 141.43,27.5192573 141.43,29.27 C141.43,31.0207427 140.010743,32.4400013 138.26,32.4400013 L125.71,32.4400013 Z" id="Path"></path>
        </g>
    </g>
</svg>